<svg width="56" height="56" viewBox="0 0 56 56" fill="none" xmlns="http://www.w3.org/2000/svg">
<path d="M30.5078 0.0362854C29.529 0.18914 28.6411 0.654648 27.8581 1.42587C26.2361 3.00998 25.3412 5.60155 25.3342 8.68641C25.3342 10.4373 25.544 11.7574 26.0753 13.3693C26.6696 15.1618 27.4945 16.5653 28.6551 17.7256C29.8086 18.8929 30.8993 19.4765 32.1996 19.6432C34.6466 19.9489 36.8558 18.1911 37.9465 15.0646C39.0301 11.938 38.6875 7.66507 37.0935 4.51073C36.4503 3.24621 35.3247 1.84969 34.325 1.10626C33.8146 0.71718 32.9407 0.286409 32.3674 0.140505C31.8291 0.00849533 30.9971 -0.0401402 30.5078 0.0362854Z" fill="#66BADA"/>
<path d="M47.5805 5.87253C45.8047 6.33804 44.3995 7.67898 43.2599 10.0135C42.414 11.7504 42.0434 13.2859 41.9945 15.3286C41.9316 17.7117 42.2811 19.6155 43.0781 21.1926C44.1408 23.3117 45.9096 24.6318 47.6714 24.6318C50.8804 24.6249 53.8028 20.8939 54.3551 16.0859C54.4739 15.0576 54.397 13.0775 54.2082 12.0562C53.9426 10.604 53.2994 8.97824 52.5793 7.92911C52.4255 7.69983 52.1039 7.32464 51.8662 7.09536C50.6777 5.94201 49.0767 5.48345 47.5805 5.87253Z" fill="#66BADA"/>
<path d="M10.1773 9.40904C9.3104 9.62442 8.66721 9.98571 8.02401 10.6249C7.3948 11.2502 7.11515 11.7018 6.84948 12.4731C6.58381 13.279 6.49292 14.1336 6.5908 15.0299C6.90541 17.8994 8.31065 20.5951 10.7017 22.9018C13.9666 26.0492 18.2173 27.2095 20.846 25.6602C21.3633 25.3544 22.0345 24.6944 22.3491 24.1733C22.4889 23.944 22.6987 23.4577 22.8245 23.0964C23.0203 22.5128 23.0482 22.3321 23.0832 21.4289C23.1531 19.4001 22.6288 17.6492 21.3633 15.6413C19.1751 12.1882 16.2318 10.0274 12.827 9.38819C12.051 9.24229 10.8345 9.24924 10.1773 9.40904Z" fill="#66BADA"/>
<path d="M31.3119 22.4849C28.9209 22.7073 27.1451 23.5202 25.2505 25.2571C23.1321 27.2026 21.4053 30.1832 20.3007 33.81C20.063 34.616 20.028 34.7966 20.063 35.1579C20.1049 35.5539 20.0909 35.5887 19.8393 35.9569C19.5666 36.3529 19.5247 36.6239 19.6365 37.2214C19.6645 37.3812 19.6435 37.6105 19.5736 37.8537C19.4547 38.2636 19.1681 40.5217 19.0353 42.1336C18.9374 43.3286 18.9933 45.5658 19.1471 46.2745C19.273 46.872 19.28 47.6224 19.1681 47.9976C19.0912 48.2547 19.0982 48.2825 19.238 48.3797C19.4058 48.4909 19.4338 48.7132 19.3149 48.9772C19.238 49.137 19.259 49.1718 19.4617 49.3663C19.6645 49.5539 19.6855 49.6026 19.6365 49.804C19.5247 50.2418 19.5806 50.471 19.8463 50.7698C20.056 50.9991 20.0909 51.0825 20.049 51.2284C19.9721 51.5132 19.9931 51.6035 20.2378 52.1872C20.7132 53.3266 21.8737 54.7301 22.7756 55.2651C23.7334 55.8348 24.7192 56.0224 26.0475 55.8973C29.6899 55.5569 31.9411 54.1117 33.7589 50.9713C34.465 49.7554 35.3878 48.6785 36.3386 47.9629C37.0098 47.4626 39.7853 46.08 40.7571 45.7604C42.1414 45.3157 43.6445 45.2254 45.5112 45.4755C48.7132 45.9132 50.4051 45.6145 52.4885 44.2457C53.4742 43.5996 55.1312 41.9529 55.4528 41.2998C55.7953 40.5981 55.9142 40.0145 55.9072 39.014C55.9002 37.8606 55.6974 37.0825 55.0892 35.8527C53.614 32.8859 50.9154 30.0581 47.1681 27.5638C42.5259 24.472 38.1424 22.8115 33.7589 22.4849C32.6612 22.4016 32.2278 22.4016 31.3119 22.4849Z" fill="#66BADA"/>
<path d="M4.22772 26.2992C2.11636 26.598 0.599256 27.8278 0.116859 29.6342C-0.0509311 30.2734 -0.0369486 31.5102 0.151815 32.2189C1.22148 36.2 5.3603 39.8546 9.84869 40.7856C10.6247 40.9454 12.2327 41.0288 12.9598 40.9454C14.7985 40.737 16.2037 39.7504 16.8609 38.201C16.9448 38.0065 17.0637 37.534 17.1336 37.1588C17.2315 36.5821 17.2315 36.3737 17.1685 35.797C17.0357 34.6854 16.5114 33.3653 15.7283 32.1494C13.9805 29.4328 10.5059 27.0844 7.27591 26.4313C6.47191 26.2715 4.91985 26.202 4.22772 26.2992Z" fill="#66BADA"/>
</svg>
