<svg width="20" height="20" viewBox="0 0 20 20" fill="none" xmlns="http://www.w3.org/2000/svg">
<path fill-rule="evenodd" clip-rule="evenodd" d="M10.0016 0C12.675 0 15.1874 1.03939 17.0745 2.92741C20.9752 6.82813 20.9752 13.1743 17.0745 17.075C15.1622 18.9881 12.5875 20.0005 9.97927 20.0005C8.55744 20.0005 7.1263 19.7 5.78729 19.0802C5.39275 18.9221 5.02334 18.7732 4.75814 18.7732C4.45293 18.775 4.04257 18.9165 3.64617 19.0533C2.8329 19.3324 1.8205 19.6804 1.07143 18.9342C0.325157 18.1869 0.669448 17.1773 0.946742 16.365C1.08353 15.9649 1.22404 15.5517 1.22404 15.2391C1.22404 14.9822 1.10028 14.6547 0.910452 14.1829C-0.832406 10.419 -0.0265781 5.88273 2.92967 2.92834C4.81676 1.04032 7.32822 0 10.0016 0ZM10.0025 1.39577C7.70136 1.39577 5.53977 2.29093 3.91602 3.91561C1.37199 6.45779 0.679684 10.3613 2.19177 13.6302C2.40951 14.169 2.61981 14.6938 2.61981 15.2391C2.61981 15.7834 2.43278 16.3315 2.26808 16.8154C2.13222 17.2136 1.92658 17.8147 2.05871 17.9469C2.18805 18.0809 2.79289 17.8696 3.19208 17.7329C3.67129 17.5691 4.21472 17.3811 4.75349 17.3774C5.29319 17.3774 5.80218 17.5821 6.34095 17.7989C9.64149 19.325 13.545 18.6308 16.0881 16.0886C19.4436 12.7313 19.4436 7.27013 16.0881 3.91468C14.4634 2.29 12.3028 1.39577 10.0025 1.39577ZM13.6752 9.45656C14.1888 9.45656 14.6057 9.8725 14.6057 10.3871C14.6057 10.9017 14.1888 11.3176 13.6752 11.3176C13.1615 11.3176 12.7409 10.9017 12.7409 10.3871C12.7409 9.8725 13.1532 9.45656 13.6668 9.45656H13.6752ZM9.94493 9.45656C10.4586 9.45656 10.8754 9.8725 10.8754 10.3871C10.8754 10.9017 10.4586 11.3176 9.94493 11.3176C9.43129 11.3176 9.01069 10.9017 9.01069 10.3871C9.01069 9.8725 9.42198 9.45656 9.93656 9.45656H9.94493ZM6.2143 9.45656C6.72795 9.45656 7.14482 9.8725 7.14482 10.3871C7.14482 10.9017 6.72795 11.3176 6.2143 11.3176C5.70066 11.3176 5.28007 10.9017 5.28007 10.3871C5.28007 9.8725 5.69228 9.45656 6.20593 9.45656H6.2143Z" fill="#9C9C9C"/>
</svg>
