<svg width="20" height="18" viewBox="0 0 20 18" fill="none" xmlns="http://www.w3.org/2000/svg">
<path d="M12.348 0C13.325 0.00699262 14.111 0.507464 14.569 1.40851C14.778 1.82008 15.126 2.5563 15.41 3.15867C15.481 3.30751 15.556 3.35546 15.638 3.35546C18.043 3.35546 20 5.31039 20 7.71286V13.6426C20 16.0451 18.043 18 15.638 18H8.58C8.166 18 7.83 17.6644 7.83 17.2508C7.83 16.8372 8.166 16.5016 8.58 16.5016H15.638C17.216 16.5016 18.5 15.2189 18.5 13.6426V7.71286C18.5 6.13652 17.216 4.85388 15.638 4.85388C14.979 4.85388 14.371 4.46928 14.09 3.87491C13.776 3.20961 13.435 2.48937 13.231 2.0858C13.026 1.68322 12.752 1.50142 12.342 1.49842H7.653C7.249 1.50142 6.974 1.68322 6.769 2.0868C6.64525 2.33091 6.47072 2.69327 6.29057 3.07215L6.07459 3.52825L5.97 3.75004L5.911 3.87491C5.63 4.46928 5.022 4.85388 4.363 4.85388C2.784 4.85388 1.5 6.13652 1.5 7.71286V13.6426C1.5 15.2189 2.784 16.5016 4.363 16.5016H5.108C5.522 16.5016 5.858 16.8372 5.858 17.2508C5.858 17.6644 5.522 18 5.108 18H4.363C1.957 18 0 16.0451 0 13.6426V7.71286C0 5.31039 1.957 3.35546 4.363 3.35546C4.446 3.35546 4.52 3.30851 4.555 3.23459L4.614 3.11072C4.893 2.51834 5.228 1.80909 5.431 1.40951C5.889 0.507464 6.676 0.00699262 7.646 0H12.348ZM10.0008 6.39635C11.0458 6.39635 12.0308 6.80492 12.7748 7.54813C13.5198 8.29235 13.9298 9.2803 13.9288 10.3272C13.9378 11.3591 13.5318 12.3421 12.7888 13.0893C12.0418 13.8405 11.0518 14.2541 10.0008 14.2541C8.9478 14.2531 7.9618 13.8425 7.2198 13.0983C6.4778 12.3541 6.0698 11.3661 6.07179 10.3192C6.07179 9.91563 6.1348 9.51805 6.2568 9.13346C6.3818 8.73888 6.8018 8.5231 7.1988 8.64697C7.5938 8.77284 7.8118 9.19439 7.6868 9.58798C7.6108 9.82473 7.57179 10.0715 7.57179 10.3202C7.5708 10.9695 7.8228 11.5799 8.2828 12.0404C8.7418 12.5009 9.3508 12.7546 9.9988 12.7556C10.6488 12.7556 11.2618 12.4989 11.7248 12.0334C12.1838 11.5709 12.4338 10.9675 12.4288 10.3322C12.4298 9.67888 12.1758 9.06953 11.7138 8.60801C11.2538 8.1485 10.6458 7.89477 10.0008 7.89477C9.8208 7.89477 9.6438 7.91375 9.4708 7.95171C9.0658 8.04561 8.6658 7.78788 8.5758 7.3853C8.4848 6.98173 8.7398 6.58015 9.1438 6.49125C9.4228 6.42732 9.7108 6.39635 9.9988 6.39635H10.0008ZM15.1701 6.5334C15.3501 6.46348 15.5601 6.46348 15.7401 6.5334C15.8301 6.57336 15.9201 6.6333 15.9801 6.69423C16.0501 6.76416 16.1101 6.85407 16.1501 6.94397C16.1901 7.03288 16.2101 7.13277 16.2101 7.22367C16.2101 7.42246 16.1301 7.61226 15.9801 7.75212C15.9101 7.82204 15.8301 7.88198 15.7401 7.92194C15.6501 7.9619 15.5501 7.97288 15.4501 7.97288C15.2601 7.97288 15.0701 7.90196 14.9201 7.75212C14.7801 7.61226 14.7001 7.42246 14.7001 7.22367C14.7001 7.13277 14.7201 7.03288 14.7601 6.94397C14.8001 6.85407 14.8601 6.76416 14.9201 6.69423C14.9901 6.6333 15.0801 6.57336 15.1701 6.5334Z" fill="#EAA643"/>
</svg>
