<svg width="23" height="20" viewBox="0 0 23 20" fill="none" xmlns="http://www.w3.org/2000/svg">
<path d="M13.72 0C14.8056 0.00776958 15.6789 0.563849 16.1878 1.56501C16.42 2.02231 16.8067 2.84034 17.1222 3.50963C17.2011 3.67501 17.2844 3.72829 17.3756 3.72829C20.0478 3.72829 22.2222 5.90044 22.2222 8.56984V15.1584C22.2222 17.8278 20.0478 20 17.3756 20H9.53333C9.07333 20 8.7 19.6271 8.7 19.1675C8.7 18.708 9.07333 18.3351 9.53333 18.3351H17.3756C19.1289 18.3351 20.5556 16.9099 20.5556 15.1584V8.56984C20.5556 6.81836 19.1289 5.3932 17.3756 5.3932C16.6433 5.3932 15.9678 4.96587 15.6556 4.30546C15.3067 3.56624 14.9278 2.76597 14.7011 2.31755C14.4733 1.87025 14.1689 1.66824 13.7133 1.66491H8.50333C8.05444 1.66824 7.74889 1.87025 7.52111 2.31866C7.38361 2.58991 7.18969 2.99252 6.98952 3.4135L6.74955 3.92027L6.63333 4.16671L6.56778 4.30546C6.25555 4.96587 5.58 5.3932 4.84778 5.3932C3.09333 5.3932 1.66667 6.81836 1.66667 8.56984V15.1584C1.66667 16.9099 3.09333 18.3351 4.84778 18.3351H5.67555C6.13555 18.3351 6.50889 18.708 6.50889 19.1675C6.50889 19.6271 6.13555 20 5.67555 20H4.84778C2.17444 20 0 17.8278 0 15.1584V8.56984C0 5.90044 2.17444 3.72829 4.84778 3.72829C4.94 3.72829 5.02222 3.67612 5.06111 3.59398L5.12667 3.45635C5.43667 2.79816 5.80889 2.0101 6.03444 1.56612C6.54333 0.563849 7.41778 0.00776958 8.49555 0H13.72ZM11.112 7.10705C12.2731 7.10705 13.3676 7.56102 14.1942 8.38681C15.022 9.21372 15.4776 10.3114 15.4764 11.4747C15.4864 12.6212 15.0353 13.7134 14.2098 14.5436C13.3798 15.3783 12.2798 15.8378 11.112 15.8378C9.942 15.8367 8.84644 15.3805 8.022 14.5536C7.19756 13.7267 6.74422 12.629 6.74644 11.4658C6.74644 11.0174 6.81644 10.5756 6.952 10.1483C7.09089 9.70986 7.55756 9.47012 7.99867 9.60775C8.43756 9.7476 8.67978 10.216 8.54089 10.6533C8.45644 10.9164 8.4131 11.1905 8.4131 11.4669C8.412 12.1884 8.692 12.8665 9.20311 13.3782C9.71311 13.8899 10.3898 14.1718 11.1098 14.1729C11.832 14.1729 12.5131 13.8877 13.0276 13.3704C13.5376 12.8565 13.8153 12.1861 13.8098 11.4802C13.8109 10.7543 13.5287 10.0773 13.0153 9.56446C12.5042 9.05389 11.8287 8.77196 11.112 8.77196C10.912 8.77196 10.7153 8.79305 10.5231 8.83523C10.0731 8.93956 9.62867 8.6532 9.52867 8.20589C9.42755 7.75748 9.71089 7.31128 10.1598 7.2125C10.4698 7.14146 10.7898 7.10705 11.1098 7.10705H11.112ZM16.8557 7.25934C17.0557 7.18164 17.289 7.18164 17.489 7.25934C17.589 7.30374 17.689 7.37033 17.7557 7.43804C17.8334 7.51573 17.9001 7.61563 17.9446 7.71552C17.989 7.81431 18.0112 7.9253 18.0112 8.02631C18.0112 8.24718 17.9223 8.45807 17.7557 8.61346C17.6779 8.69116 17.589 8.75776 17.489 8.80215C17.389 8.84655 17.2779 8.85876 17.1668 8.85876C16.9557 8.85876 16.7446 8.77995 16.5779 8.61346C16.4223 8.45807 16.3334 8.24718 16.3334 8.02631C16.3334 7.9253 16.3557 7.81431 16.4001 7.71552C16.4446 7.61563 16.5112 7.51573 16.5779 7.43804C16.6557 7.37033 16.7557 7.30374 16.8557 7.25934Z" fill="#66BADA"/>
</svg>
