<svg width="20" height="17" viewBox="0 0 20 17" fill="none" xmlns="http://www.w3.org/2000/svg">
<path d="M17.1704 0.214131C17.4631 -0.0713769 17.9217 -0.0713769 18.2046 0.214131C18.4974 0.499638 18.4974 0.972202 18.2046 1.25771L16.4288 3.04952C17.8436 4.34907 19.0438 6.10149 19.9415 8.20834C20.0195 8.3954 20.0195 8.61199 19.9415 8.7892C17.8534 13.6921 14.1358 16.6259 9.99868 16.6259H9.98892C8.10575 16.6259 6.30063 16.0056 4.71018 14.8735L2.81725 16.7834C2.67089 16.9311 2.4855 17 2.30011 17C2.11472 17 1.91957 16.9311 1.78297 16.7834C1.53903 16.5373 1.5 16.1435 1.69515 15.858L1.72442 15.8186L16.1556 1.25771C16.1751 1.23802 16.1946 1.21833 16.2044 1.19864C16.2239 1.17895 16.2434 1.15926 16.2532 1.13957L17.1704 0.214131ZM10.0013 0.385337C11.3966 0.385337 12.7529 0.720069 14.0018 1.35015L10.7429 4.63841C10.5087 4.59903 10.255 4.5695 10.0013 4.5695C7.84494 4.5695 6.09836 6.33177 6.09836 8.50753C6.09836 8.7635 6.12764 9.01948 6.16667 9.25576L2.55643 12.8984C1.5807 11.7564 0.731804 10.3781 0.0585443 8.79304C-0.0195148 8.61583 -0.0195148 8.39924 0.0585443 8.21218C2.14662 3.30933 5.86419 0.385337 9.99156 0.385337H10.0013ZM13.2186 6.28855L12.1551 7.36166C12.3307 7.69639 12.4283 8.0902 12.4283 8.50369C12.4283 9.85247 11.3354 10.9551 9.99868 10.9551C9.58887 10.9551 9.19858 10.8567 8.86683 10.6795L7.80327 11.7526C8.42774 12.1759 9.18882 12.4319 9.99868 12.4319C12.1453 12.4319 13.8919 10.6696 13.8919 8.50369C13.8919 7.68655 13.6382 6.91863 13.2186 6.28855Z" fill="#EAA643"/>
</svg>
