<svg width="20" height="19" viewBox="0 0 20 19" fill="none" xmlns="http://www.w3.org/2000/svg">
<path d="M6.27995 0.000154663C6.90994 0.0193141 7.51994 0.129313 8.11093 0.330311H8.16993C8.20993 0.349311 8.23993 0.37031 8.25993 0.38931C8.48093 0.46031 8.68993 0.540309 8.88992 0.650307L9.26992 0.820306C9.41992 0.900305 9.59992 1.0493 9.69991 1.1103C9.79991 1.1693 9.90991 1.2303 9.99991 1.2993C11.1109 0.45031 12.4599 -0.00968556 13.8499 0.000154663C14.4809 0.000154663 15.1109 0.0893134 15.7099 0.290311C19.4008 1.4903 20.7308 5.54026 19.6198 9.08022C18.9898 10.8892 17.9598 12.5402 16.6108 13.8892C14.6799 15.7591 12.5609 17.4191 10.2799 18.8491L10.0299 19.0001L9.76991 18.8391C7.48094 17.4191 5.34996 15.7591 3.40098 13.8792C2.06099 12.5302 1.03001 10.8892 0.390012 9.08022C-0.739976 5.54026 0.590011 1.4903 4.32097 0.269312C4.61097 0.169313 4.90997 0.0993133 5.20996 0.0603137H5.32996C5.61096 0.0193141 5.88996 0.000154663 6.16995 0.000154663H6.27995ZM15.1899 3.16028C14.7799 3.01928 14.3299 3.24028 14.1799 3.66028C14.0399 4.08027 14.2599 4.54027 14.6799 4.68926C15.3209 4.92926 15.7499 5.56026 15.7499 6.25925V6.29025C15.7309 6.51925 15.7999 6.74024 15.9398 6.91024C16.0798 7.08024 16.2898 7.17924 16.5098 7.20024C16.9198 7.18924 17.2698 6.86024 17.2998 6.43925V6.32025C17.3298 4.91926 16.4808 3.65028 15.1899 3.16028Z" fill="#E44947"/>
</svg>
