<svg width="17" height="16" viewBox="0 0 17 16" fill="none" xmlns="http://www.w3.org/2000/svg">
<path d="M14.077 9.36663C15.692 9.36663 17 10.6527 17 12.2393C17 13.8251 15.692 15.1111 14.077 15.1111C12.4629 15.1111 11.1539 13.8251 11.1539 12.2393C11.1539 10.6527 12.4629 9.36663 14.077 9.36663ZM6.8708 11.0143C7.57818 11.0143 8.1524 11.5784 8.1524 12.2734C8.1524 12.9674 7.57818 13.5325 6.8708 13.5325H1.2816C0.574219 13.5325 0 12.9674 0 12.2734C0 11.5784 0.574219 11.0143 1.2816 11.0143H6.8708ZM2.92304 0C4.53803 0 5.84608 1.28604 5.84608 2.87178C5.84608 4.45844 4.53803 5.74448 2.92304 5.74448C1.30899 5.74448 0 4.45844 0 2.87178C0 1.28604 1.30899 0 2.92304 0ZM15.7193 1.61358C16.4258 1.61358 17 2.17773 17 2.87178C17 3.56676 16.4258 4.1309 15.7193 4.1309H10.1301C9.42276 4.1309 8.84855 3.56676 8.84855 2.87178C8.84855 2.17773 9.42276 1.61358 10.1301 1.61358H15.7193Z" fill="#9C9C9C"/>
</svg>
