<svg width="16" height="20" viewBox="0 0 16 20" fill="none" xmlns="http://www.w3.org/2000/svg">
<path d="M11.0696 0C13.7795 0 15.9694 1.06996 15.9994 3.78985V18.9693C15.9994 19.1393 15.9594 19.3093 15.8794 19.4592C15.7494 19.6992 15.5294 19.8792 15.2594 19.9592C14.9994 20.0392 14.7094 19.9992 14.4694 19.8592L7.98969 16.6194L1.49994 19.8592C1.35095 19.9382 1.17995 19.9892 1.00996 19.9892C0.449983 19.9892 0 19.5292 0 18.9693V3.78985C0 1.06996 2.19991 0 4.89981 0H11.0696ZM11.7495 6.03977H4.21984C3.78985 6.03977 3.43987 6.38975 3.43987 6.82974C3.43987 7.26872 3.78985 7.6197 4.21984 7.6197H11.7495C12.1795 7.6197 12.5295 7.26872 12.5295 6.82974C12.5295 6.38975 12.1795 6.03977 11.7495 6.03977Z" fill="#E44947"/>
</svg>
