<svg width="20" height="20" viewBox="0 0 20 20" fill="none" xmlns="http://www.w3.org/2000/svg">
<path fill-rule="evenodd" clip-rule="evenodd" d="M9.9986 1.01512C11.5871 0.0108614 13.6972 -0.26658 15.5201 0.31761C19.4853 1.59638 20.7163 5.9192 19.6153 9.35889C17.9164 14.7612 10.6609 18.7909 10.3532 18.9599C10.2438 19.0205 10.1227 19.0508 10.0015 19.0508C9.8804 19.0508 9.76024 19.0215 9.65082 18.9619C9.34505 18.7948 2.14232 14.8247 0.386813 9.35986C0.385836 9.35986 0.385836 9.35889 0.385836 9.35889C-0.716115 5.91822 0.51088 1.59443 4.47224 0.31761C6.33227 -0.284165 8.35935 -0.0194227 9.9986 1.01512ZM4.92162 1.71263C1.71638 2.7462 0.911412 6.19371 1.78184 8.91244C3.15146 13.1737 8.56255 16.6193 10.0006 17.4721C11.4434 16.6105 16.8936 13.1268 18.2193 8.91635C19.0897 6.19468 18.2818 2.74718 15.0717 1.71263C13.5164 1.21343 11.7023 1.51725 10.4499 2.48634C10.1881 2.68759 9.82471 2.69149 9.56095 2.49221C8.23431 1.49478 6.50128 1.20269 4.92162 1.71263ZM14.1339 3.65267C15.4654 4.08349 16.3983 5.26262 16.5126 6.65666C16.5449 7.06013 16.2449 7.41377 15.8415 7.446C15.821 7.44796 15.8014 7.44894 15.7809 7.44894C15.4029 7.44894 15.0824 7.15879 15.0512 6.77585C14.9867 5.97283 14.4494 5.29486 13.6845 5.0477C13.2986 4.92265 13.0876 4.50942 13.2117 4.1255C13.3377 3.7406 13.747 3.53154 14.1339 3.65267Z" fill="#9C9C9C"/>
</svg>
